<svg width="300" height="300" viewBox="0 0 300 300" fill="none" xmlns="http://www.w3.org/2000/svg">
  <g filter="url(#filter0_b_1_2)">
    <path
      d="M49.2514 106.648C46.884 106.648 45.7004 106 45.7004 104.705C45.7004 104.348 45.7227 104.124 45.7674 104.035C46.0354 103.052 48.0677 101.556 51.8644 99.546C55.6164 97.5807 59.2567 96.1737 62.7854 95.325C66.0014 94.5657 69.0834 93.8957 72.0314 93.315C74.9794 92.6897 77.8157 92.176 80.5404 91.774C83.4884 89.4067 85.275 87.0393 85.9004 84.672C86.0344 84.1807 86.1014 83.734 86.1014 83.332C86.1014 81.59 84.8954 80.3617 82.4834 79.647C81.7687 79.4237 79.2897 79.0217 75.0464 78.441C71.1157 77.905 68.391 77.302 66.8724 76.632C64.907 75.7387 63.9244 74.4657 63.9244 72.813C63.9244 72.1877 64.0584 71.473 64.3264 70.669C65.3537 67.4977 68.7484 64.237 74.5104 60.887C80.853 57.1797 86.9277 55.326 92.7344 55.326C96.9777 55.326 99.0994 56.532 99.0994 58.944C99.0994 60.1947 98.4964 61.758 97.2904 63.634C96.799 64.3933 96.397 64.773 96.0844 64.773C95.9504 64.773 95.8834 64.6837 95.8834 64.505C95.8834 64.2817 96.0174 63.9467 96.2854 63.5C96.9554 62.428 97.2904 61.4677 97.2904 60.619C97.2904 58.475 95.3474 57.403 91.4614 57.403C89.0047 57.403 86.615 57.6933 84.2924 58.274C82.0144 58.81 79.7587 59.5917 77.5254 60.619C72.7907 62.897 69.5077 65.8897 67.6764 69.597C67.2744 70.401 67.0734 71.0933 67.0734 71.674C67.0734 73.7733 69.999 75.2697 75.8504 76.163C80.6297 76.833 83.8457 77.436 85.4984 77.972C88.625 78.9547 90.1214 80.317 89.9874 82.059C90.1214 85.0517 88.4687 88.089 85.0294 91.171L85.4984 91.104C85.677 91.0593 85.9004 91.037 86.1684 91.037C86.4364 91.037 86.749 91.037 87.1064 91.037H87.4414C87.8434 91.037 88.0444 91.171 88.0444 91.439C88.0444 91.8857 87.62 92.1313 86.7714 92.176C86.548 92.2207 86.3024 92.243 86.0344 92.243C85.7664 92.243 85.4984 92.2653 85.2304 92.31L83.4884 92.511C80.7637 94.655 77.6817 96.6427 74.2424 98.474C70.803 100.305 66.9394 101.98 62.6514 103.499C56.6214 105.598 52.1547 106.648 49.2514 106.648ZM48.8494 105.04C50.904 105.04 55.259 103.812 61.9144 101.355C68.2124 99.1663 73.5947 96.5533 78.0614 93.516C76.1854 94.0073 73.9967 94.588 71.4954 95.258C68.994 95.8833 66.113 96.598 62.8524 97.402C61.289 97.7593 59.7034 98.2283 58.0954 98.809C56.4874 99.4343 54.8347 100.127 53.1374 100.886C49.698 102.494 47.9784 103.722 47.9784 104.571V104.638C47.9784 104.906 48.2687 105.04 48.8494 105.04ZM93.5394 97.067C91.9314 97.067 91.1274 96.2183 91.1274 94.521C91.1274 91.8857 92.4004 89.094 94.9464 86.146C95.4377 85.5207 96.0184 84.7837 96.6884 83.935C97.4031 83.0417 98.2071 82.0813 99.1004 81.054C99.1897 81.054 98.7877 80.8977 97.8944 80.585C97.3137 80.4063 97.0234 80.0937 97.0234 79.647C97.0234 79.111 97.4031 78.843 98.1624 78.843C98.8771 78.843 100.061 78.642 101.713 78.24C101.981 78.0613 102.249 77.8827 102.517 77.704C102.83 77.5253 103.143 77.3467 103.455 77.168C103.947 76.8553 104.438 76.699 104.929 76.699C105.197 76.699 105.465 76.766 105.733 76.9C106.046 76.9893 106.381 77.1233 106.738 77.302C107.23 77.57 107.654 77.8157 108.011 78.039C108.413 78.2177 108.726 78.3517 108.949 78.441L116.051 78.374C116.811 78.374 117.19 78.5527 117.19 78.91C117.19 79.2673 116.811 79.4907 116.051 79.58C115.113 79.714 114.265 79.781 113.505 79.781C113.55 79.9597 113.572 80.1383 113.572 80.317C113.617 80.451 113.639 80.5627 113.639 80.652C113.639 82.0813 112.791 83.9127 111.093 86.146C109.709 87.9773 108.145 89.563 106.403 90.903C102.473 93.8957 98.9441 95.8163 95.8174 96.665C94.9687 96.933 94.2094 97.067 93.5394 97.067ZM94.2094 95.459C94.2987 95.459 94.3881 95.459 94.4774 95.459C94.6114 95.4143 94.7677 95.3697 94.9464 95.325C97.8944 94.4763 101.222 92.645 104.929 89.831C105.599 89.3397 106.247 88.759 106.872 88.089C107.542 87.419 108.19 86.7043 108.815 85.945C110.289 84.069 111.026 82.5503 111.026 81.389C111.026 80.853 110.87 80.4287 110.557 80.116H107.542C106.56 80.116 105.711 80.2053 104.996 80.384C104.326 80.518 103.746 80.6967 103.254 80.92C101.959 81.9027 100.038 83.868 97.4924 86.816C96.5991 87.888 95.7281 89.1163 94.8794 90.501C93.7627 92.3323 93.2044 93.5607 93.2044 94.186V94.32C93.2044 95.0793 93.5394 95.459 94.2094 95.459ZM111.304 104.504C110.947 104.504 110.768 104.258 110.768 103.767C110.768 103.588 110.679 103.231 110.5 102.695C110.322 102.159 110.232 101.645 110.232 101.154C110.232 100.484 110.366 99.8587 110.634 99.278C111.483 97.1787 112.823 94.5657 114.654 91.439C116.486 88.3123 118.831 84.6497 121.689 80.451C121.243 80.451 120.729 80.1607 120.148 79.58C119.523 78.9547 119.21 78.4857 119.21 78.173C119.21 77.9943 119.344 77.905 119.612 77.905L121.89 77.704C122.248 77.6593 122.56 77.637 122.828 77.637C123.141 77.637 123.454 77.6147 123.766 77.57C125.419 75.2473 127.049 73.215 128.657 71.473C130.265 69.731 131.851 68.2347 133.414 66.984C137.032 64.17 140.606 62.763 144.134 62.763C145.474 62.763 146.814 63.0757 148.154 63.701C148.378 63.7903 148.489 63.9243 148.489 64.103C148.489 64.5943 147.73 65.2643 146.211 66.113C144.961 64.9963 143.598 64.438 142.124 64.438C140.338 64.438 138.082 65.4653 135.357 67.52C132.588 69.5747 129.573 72.9023 126.312 77.503H128.791C131.918 77.503 134.285 77.637 135.893 77.905C136.519 77.9943 136.831 78.1953 136.831 78.508C136.831 78.91 136.407 79.111 135.558 79.111C134.218 79.111 132.834 79.1333 131.404 79.178C129.975 79.2227 128.501 79.2897 126.982 79.379C125.598 79.4683 124.548 80.0937 123.833 81.255C121.6 84.605 119.635 87.7093 117.937 90.568C116.285 93.382 114.878 95.9727 113.716 98.34C112.957 99.9927 112.577 101.556 112.577 103.03C112.577 103.387 112.443 103.722 112.175 104.035C111.863 104.348 111.572 104.504 111.304 104.504ZM133.7 96.799C133.03 96.799 132.159 96.598 131.087 96.196C129.479 95.5707 128.675 94.6773 128.675 93.516C128.675 93.0693 128.853 92.4217 129.211 91.573C129.568 90.8137 130.015 89.9203 130.551 88.893C131.131 87.8657 131.824 86.7043 132.628 85.409L135.308 81.054C135.397 80.8307 135.442 80.6297 135.442 80.451C135.442 80.2277 135.442 80.0267 135.442 79.848C135.442 79.312 135.308 78.977 135.04 78.843C134.057 78.3963 133.566 77.9943 133.566 77.637C133.566 77.4583 133.811 77.302 134.303 77.168C134.883 77.034 135.531 76.9223 136.246 76.833C137.005 76.7437 137.854 76.6767 138.792 76.632C140.355 74.6667 141.896 72.7907 143.415 71.004C144.978 69.0833 146.184 67.8997 147.033 67.453C148.328 66.649 149.623 66.247 150.919 66.247C151.276 66.247 151.455 66.2917 151.455 66.381C151.455 66.5597 151.365 66.6713 151.187 66.716C149.489 67.8327 147.971 69.0387 146.631 70.334L142.343 75.225C142.075 75.5377 141.941 75.828 141.941 76.096C141.941 76.4533 142.209 76.6767 142.745 76.766C142.968 76.766 143.191 76.766 143.415 76.766C143.638 76.7213 143.884 76.699 144.152 76.699C144.643 76.699 145.201 76.7213 145.827 76.766C146.452 76.766 147.1 76.7883 147.77 76.833C148.172 76.8777 148.373 76.9893 148.373 77.168C148.373 77.57 147.636 77.8157 146.162 77.905C145.179 77.905 143.504 78.039 141.137 78.307C140.556 78.3963 139.864 78.709 139.06 79.245C137.541 81.2103 136.246 83.198 135.174 85.208C134.102 87.218 133.208 89.228 132.494 91.238C132.002 92.6227 131.757 93.5383 131.757 93.985C131.757 94.7443 132.136 95.124 132.896 95.124C133.521 95.124 134.169 94.9677 134.839 94.655C135.107 94.5657 135.486 94.3647 135.978 94.052C136.246 93.8733 136.558 93.6947 136.916 93.516C137.273 93.2927 137.675 93.0247 138.122 92.712C139.819 91.6847 140.757 91.171 140.936 91.171C141.382 91.171 141.606 91.3497 141.606 91.707C141.606 92.0197 141.427 92.31 141.07 92.578L138.591 94.454C137.965 94.9007 137.295 95.3027 136.581 95.66C135.911 96.0173 135.218 96.3523 134.504 96.665C134.236 96.7543 133.968 96.799 133.7 96.799ZM142.614 96.732C142.346 96.732 142.212 96.6203 142.212 96.397L142.346 95.928C142.436 95.7493 142.547 95.5483 142.681 95.325C142.86 95.1017 143.039 94.8783 143.217 94.655L144.289 93.047C144.423 92.8683 144.602 92.645 144.825 92.377C145.049 92.0643 145.294 91.6847 145.562 91.238L147.639 87.888C148.399 86.8607 149.203 85.3867 150.051 83.466C150.096 83.198 150.141 82.8853 150.185 82.528C150.23 82.126 150.275 81.6793 150.319 81.188C150.409 80.9647 151.213 80.518 152.731 79.848C154.161 79.1333 155.166 78.776 155.746 78.776C155.97 78.776 156.081 78.843 156.081 78.977C156.081 79.0663 156.014 79.2227 155.88 79.446C155.121 80.4733 154.317 81.6347 153.468 82.93C152.664 84.1807 151.816 85.543 150.922 87.017L155.344 83.332C155.88 82.8853 156.305 82.5503 156.617 82.327C156.975 82.059 157.198 81.8803 157.287 81.791C160.593 79.513 163.496 78.374 165.997 78.374C166.31 78.374 166.466 78.6867 166.466 79.312C166.466 79.9373 166.31 80.6297 165.997 81.389C165.729 82.1037 165.417 82.461 165.059 82.461C164.97 82.461 164.881 82.4163 164.791 82.327V82.193C164.791 82.1037 164.791 82.0143 164.791 81.925C164.836 81.8357 164.858 81.7017 164.858 81.523V81.322C164.858 81.0093 164.769 80.853 164.59 80.853C160.794 80.853 156.238 83.3097 150.922 88.223C150.431 88.7143 149.85 89.4067 149.18 90.3C148.51 91.1933 147.751 92.2653 146.902 93.516L146.232 94.99L144.423 95.995C143.53 96.4863 142.927 96.732 142.614 96.732ZM166.552 97.335C165.167 97.335 163.961 96.9777 162.934 96.263C161.951 95.5483 161.46 94.6997 161.46 93.717C161.46 93.3597 161.571 92.8013 161.795 92.042C163.09 88.3347 166.485 84.002 171.979 79.044L175.329 77.838C177.473 77.1233 178.634 76.7883 178.813 76.833C180.465 77.101 181.292 77.7933 181.292 78.91C181.292 81.054 179.572 83.1757 176.133 85.275C173.051 87.151 170.348 88.089 168.026 88.089C167.802 88.089 167.579 88.089 167.356 88.089C167.132 88.0443 166.909 87.9997 166.686 87.955C166.239 88.5803 165.837 89.161 165.48 89.697C165.122 90.233 164.832 90.7467 164.609 91.238C164.251 92.0867 164.073 92.8013 164.073 93.382C164.073 94.856 164.676 95.593 165.882 95.593C167.088 95.593 169.031 95.057 171.711 93.985C174.301 93.0023 176.066 92.1313 177.004 91.372C177.361 91.1487 177.674 91.037 177.942 91.037C178.21 91.037 178.344 91.1487 178.344 91.372C178.299 91.64 178.076 91.9303 177.674 92.243C177.004 92.7343 176.222 93.248 175.329 93.784C174.48 94.2753 173.52 94.8113 172.448 95.392C169.723 96.6873 167.758 97.335 166.552 97.335ZM170.103 86.615C171.711 86.615 173.408 85.744 175.195 84.002C176.892 82.3047 177.741 80.8977 177.741 79.781C177.741 79.1557 177.45 78.8207 176.87 78.776C174.949 78.4633 172.068 80.853 168.227 85.945C168.673 86.3917 169.299 86.615 170.103 86.615ZM178.535 97.067C177.999 97.067 177.731 96.866 177.731 96.464C177.731 96.062 177.999 95.5037 178.535 94.789C178.893 94.387 180.97 91.238 184.766 85.342C184.856 85.208 184.856 85.074 184.766 84.94C184.632 84.806 184.588 84.672 184.632 84.538L187.044 82.059C187.625 81.2103 188.63 80.786 190.059 80.786C190.417 80.786 190.595 80.8753 190.595 81.054L190.394 81.389C189.814 82.0143 189.188 82.7067 188.518 83.466C187.893 84.2253 187.223 85.074 186.508 86.012C184.588 88.4687 183.627 90.1213 183.627 90.97C183.627 91.104 183.65 91.1933 183.694 91.238L196.692 81.791C197.764 80.987 198.926 80.585 200.176 80.585C200.891 80.585 201.248 80.853 201.248 81.389C201.248 81.9697 200.779 82.8407 199.841 84.002C199.35 84.538 198.881 85.5653 198.434 87.084C197.988 88.4687 197.764 89.8087 197.764 91.104C197.764 92.7567 198.3 93.449 199.372 93.181C200.534 92.8683 201.606 92.511 202.588 92.109C203.616 91.707 204.531 91.2157 205.335 90.635C205.737 90.367 206.139 90.233 206.541 90.233C206.765 90.233 206.876 90.3223 206.876 90.501C206.876 90.635 206.675 90.9477 206.273 91.439C205.693 92.1537 204.219 92.98 201.851 93.918C199.439 94.8113 197.72 95.258 196.692 95.258C194.95 95.258 194.079 94.3423 194.079 92.511C194.079 91.037 194.839 88.692 196.357 85.476C196.536 85.1633 196.625 84.8507 196.625 84.538C196.625 84.2253 196.469 84.069 196.156 84.069C195.71 84.069 195.196 84.2923 194.615 84.739C192.829 85.9897 191.221 87.1733 189.791 88.29C188.407 89.4067 187.223 90.434 186.24 91.372L181.483 95.995C180.947 96.4417 180.21 96.7767 179.272 97C179.138 97.0447 179.004 97.067 178.87 97.067C178.736 97.067 178.625 97.067 178.535 97.067ZM208.028 96.799C207.358 96.799 206.487 96.598 205.415 96.196C203.807 95.5707 203.003 94.6773 203.003 93.516C203.003 93.0693 203.181 92.4217 203.539 91.573C203.896 90.8137 204.343 89.9203 204.879 88.893C205.459 87.8657 206.152 86.7043 206.956 85.409L209.636 81.054C209.725 80.8307 209.77 80.6297 209.77 80.451C209.77 80.2277 209.77 80.0267 209.77 79.848C209.77 79.312 209.636 78.977 209.368 78.843C208.385 78.3963 207.894 77.9943 207.894 77.637C207.894 77.4583 208.139 77.302 208.631 77.168C209.211 77.034 209.859 76.9223 210.574 76.833C211.333 76.7437 212.182 76.6767 213.12 76.632C214.683 74.6667 216.224 72.7907 217.743 71.004C219.306 69.0833 220.512 67.8997 221.361 67.453C222.656 66.649 223.951 66.247 225.247 66.247C225.604 66.247 225.783 66.2917 225.783 66.381C225.783 66.5597 225.693 66.6713 225.515 66.716C223.817 67.8327 222.299 69.0387 220.959 70.334L216.671 75.225C216.403 75.5377 216.269 75.828 216.269 76.096C216.269 76.4533 216.537 76.6767 217.073 76.766C217.296 76.766 217.519 76.766 217.743 76.766C217.966 76.7213 218.212 76.699 218.48 76.699C218.971 76.699 219.529 76.7213 220.155 76.766C220.78 76.766 221.428 76.7883 222.098 76.833C222.5 76.8777 222.701 76.9893 222.701 77.168C222.701 77.57 221.964 77.8157 220.49 77.905C219.507 77.905 217.832 78.039 215.465 78.307C214.884 78.3963 214.192 78.709 213.388 79.245C211.869 81.2103 210.574 83.198 209.502 85.208C208.43 87.218 207.536 89.228 206.822 91.238C206.33 92.6227 206.085 93.5383 206.085 93.985C206.085 94.7443 206.464 95.124 207.224 95.124C207.849 95.124 208.497 94.9677 209.167 94.655C209.435 94.5657 209.814 94.3647 210.306 94.052C210.574 93.8733 210.886 93.6947 211.244 93.516C211.601 93.2927 212.003 93.0247 212.45 92.712C214.147 91.6847 215.085 91.171 215.264 91.171C215.71 91.171 215.934 91.3497 215.934 91.707C215.934 92.0197 215.755 92.31 215.398 92.578L212.919 94.454C212.293 94.9007 211.623 95.3027 210.909 95.66C210.239 96.0173 209.546 96.3523 208.832 96.665C208.564 96.7543 208.296 96.799 208.028 96.799ZM218.767 96.933C217.74 96.933 217.226 96.33 217.226 95.124C217.226 94.2753 217.539 93.181 218.164 91.841C219.772 88.8483 222.43 85.7663 226.137 82.595C230.648 78.843 234.311 76.967 237.125 76.967C238.867 76.967 240.073 77.302 240.743 77.972C241.77 77.2127 242.865 76.833 244.026 76.833C244.249 76.833 244.361 76.9 244.361 77.034C244.361 77.1233 244.316 77.2127 244.227 77.302C243.602 78.0167 242.887 78.977 242.083 80.183C241.324 81.389 240.497 82.8853 239.604 84.672C237.505 88.7813 236.455 91.7963 236.455 93.717C236.455 94.1637 236.477 94.4317 236.522 94.521V94.588C236.522 94.856 236.388 95.191 236.12 95.593C235.852 95.9503 235.584 96.129 235.316 96.129C234.78 96.129 234.512 95.2357 234.512 93.449C234.512 90.4117 235.204 87.5083 236.589 84.739L230.894 89.496C228.75 91.2827 226.807 92.7567 225.065 93.918C223.368 95.0347 221.894 95.8833 220.643 96.464C220.018 96.7767 219.392 96.933 218.767 96.933ZM221.782 93.851C222.05 93.851 222.34 93.7617 222.653 93.583C223.234 93.3597 224.239 92.779 225.668 91.841C227.097 90.903 228.638 89.7417 230.291 88.357C232.346 86.6597 234.043 85.1187 235.383 83.734C236.768 82.3047 237.773 81.2327 238.398 80.518C238.13 79.7587 237.594 79.379 236.79 79.379C235.227 79.379 232.725 80.719 229.286 83.399C225.4 86.5257 222.854 89.094 221.648 91.104C221.246 91.8187 221.045 92.4887 221.045 93.114C221.045 93.6053 221.291 93.851 221.782 93.851ZM246.25 97.134C245.669 97.268 244.932 97.0223 244.039 96.397C243.011 95.6377 242.431 94.655 242.297 93.449C243.19 90.8137 245.49 86.883 249.198 81.657C252.905 76.431 257.997 69.8873 264.474 62.026C264.652 61.7133 265.657 61.222 267.489 60.552C269.186 59.8373 270.347 59.48 270.973 59.48C271.598 59.48 271.911 59.7033 271.911 60.15C271.911 60.552 271.553 60.753 270.839 60.753C270.079 60.753 268.672 61.7803 266.618 63.835C264.116 66.247 260.186 70.9817 254.826 78.039C248.662 86.1237 245.58 91.171 245.58 93.181C245.58 93.6277 245.691 94.0967 245.915 94.588C246.138 95.0793 246.495 95.325 246.987 95.325C247.255 95.325 247.768 95.1687 248.528 94.856C249.332 94.5433 250.203 94.1637 251.141 93.717C252.079 93.2703 252.972 92.8237 253.821 92.377C254.669 91.8857 255.295 91.506 255.697 91.238C255.697 92.1313 255.585 92.645 255.362 92.779C255.004 92.9577 254.647 93.1363 254.29 93.315C253.977 93.4937 253.642 93.6947 253.285 93.918C252.972 94.0967 252.637 94.2977 252.28 94.521C251.922 94.6997 251.565 94.9007 251.208 95.124C249.376 96.1513 247.724 96.8213 246.25 97.134Z"
      fill="url(#paint0_linear_1_2)"/>
  </g>
  <defs>
    <filter id="filter0_b_1_2" x="41.7004" y="51.326" width="234.21" height="59.322" filterUnits="userSpaceOnUse"
            color-interpolation-filters="sRGB">
      <feFlood flood-opacity="0" result="BackgroundImageFix"/>
      <feGaussianBlur in="BackgroundImageFix" stdDeviation="2"/>
      <feComposite in2="SourceAlpha" operator="in" result="effect1_backgroundBlur_1_2"/>
      <feBlend mode="normal" in="SourceGraphic" in2="effect1_backgroundBlur_1_2" result="shape"/>
    </filter>
    <linearGradient id="paint0_linear_1_2" x1="284.868" y1="6" x2="40.6008" y2="43.5749" gradientUnits="userSpaceOnUse">
      <stop stop-color="#E6AB23"/>
      <stop offset="1" stop-color="#7EC189"/>
    </linearGradient>
  </defs>
</svg>
